<svg
  xmlns="http://www.w3.org/2000/svg"
  viewBox="0 0 240 240"
  fill="#1FD8A4"
>
  <path
    transform="matrix(.06 0 0 -.06 -120 240)"
    d="M3232.0592 3409.24759c-29-8-90-33-136-55-95-45-160-108-226-220-76-128-73-100-78-817-2-416 0-673 7-730 22-185 144-349 326-439 113-56 160-64 359-64h161l220-227c274-281 263-272 302-279 44-8 72 0 111 33 42 37 52 90 52 292 0 109 4 161 12 169s61 12 170 12c177 0 283 16 351 54 23 13 60 33 82 45 120 64 234 245 256 406 6 51 9 312 7 720l-3 640-24 65c-27 76-33 87-79 160-37 58-128 150-148 150-7 0-14 4-16 8-6 15-128 63-194 77-100 21-1435 20-1512 0zm1113-358c208-63 361-209 427-407 19-59 22-92 26-345 3-225 1-294-12-353-44-209-199-388-400-461-69-24-79-25-351-28-154-1-307 2-340 7-177 27-375 194-461 390l-29 65-3 316c-4 352 2 395 61 498 99 175 275 304 451 332 90 14 574 4 631-14z"
  />
  <path
    transform="matrix(.06 0 0 -.06 -119.9446 240.5944)"
    d="M3790.0592 2813.24759c-115-6-139-14-227-80-72-53-111-136-124-262-14-121-3-455 17-524 17-63 79-142 148-191 74-52 132-60 426-58l255 2 74 39c55 30 84 54 115 95 72 93 71 90 71 430 0 293-1 307-22 352-31 67-92 129-160 163-62 32-40 30-365 38-57 1-150-1-208-4z"
  />
</svg>